# xmcd
#
# Track frame offsets:
# 150
# 13357
# 29981
# 45059
# 60529
# 73370
# 88950
# 106311
# 124932
# 137544
# 150507
# 166547
# 180066
# 195274
# 209906
# 238066
#
# Disc length: 3182 seconds
#
#
# Revision: 0
# Processed by: cddbd v1.5.2PL0 Copyright (c) Steve Scherf et al.
# Submitted via: FreeRIP 2.942 
#
DISCID=da0c6c10
DTITLE=Annett Louisan - Unausgesprochen
DYEAR=2006
DGENRE=Blues
TTITLE0=Das große Erwachen (...und jetzt...)
TTITLE1=Torsten Schmidt
TTITLE2=Chancenlos
TTITLE3=Gedacht ich sage nein
TTITLE4=Eve
TTITLE5=Läuft alles perfekt
TTITLE6=Wo ist das Problem?
TTITLE7=Er gehörte mal mir
TTITLE8=Die Lösung
TTITLE9=Der den ich will
TTITLE10=Vielleicht
TTITLE11=Widder wider Willen
TTITLE12=Beerdigung
TTITLE13=Ausgesprochen unausgesprochen
TTITLE14=Was hast Du vor?
TTITLE15=Daten
EXTD=
EXTT0=
EXTT1=
EXTT2=
EXTT3=
EXTT4=
EXTT5=
EXTT6=
EXTT7=
EXTT8=
EXTT9=
EXTT10=
EXTT11=
EXTT12=
EXTT13=
EXTT14=
EXTT15=
PLAYORDER=
